<?xml version="1.0" encoding="utf-8"?>
<svg version="1.1" xmlns="http://www.w3.org/2000/svg" xmlns:xlink="http://www.w3.org/1999/xlink" x="0px" y="0px"
	 viewBox="0 0 500 500" style="enable-background:new 0 0 500 500;" xml:space="preserve">
<g id="Background">
	<rect style="fill:#FFFFFF;" width="500" height="500"/>
</g>
<g id="Objects">
	<path style="fill:#060606;" d="M349.343,343.565c-0.02-2.222-0.151-4.409-0.489-6.1c-1.107-5.538-4.43-14.398-6.092-19.382
		c-1.661-4.984-1.107-14.952-2.769-23.259c-1.661-8.307-6.645-19.382-9.414-27.689c-2.769-8.307-7.753-17.721-8.861-23.259
		c-1.108-5.538-2.215-13.845-2.215-23.259c0-9.414-7.753-19.382-7.753-19.382s0.554-13.844-4.43-27.135
		c-4.984-13.291-10.522-17.167-13.291-17.167s-2.769-0.554-6.092-3.876c-1.501-1.501-4.136-2.887-7.08-4.06
		c0,0,0.002-0.002,0.002-0.002s-5.105-8.675-6.213-14.213c-1.108-5.538,1.661-8.86,1.107-19.382
		c-0.554-10.522-4.984-14.952-4.43-22.705c0.554-7.753,0.554-17.167-3.876-22.705c-4.43-5.538-8.861-9.968-8.861-9.968
		s3.876-6.645-2.769-9.968c-6.645-3.323-28.13-6.323-42.308,8.191c-14.178,14.514-20.269,35.558-20.823,47.187
		c-0.554,11.629-3.323,13.291-7.753,22.151c-4.43,8.86,0.554,14.952-1.661,22.151c-2.215,7.199-3.876,9.414-3.876,17.167
		c0,7.753,5.538,7.199,1.107,14.398c-4.43,7.199-1.661,13.291-6.092,19.382c-4.43,6.092-9.968,12.524-9.968,21.491
		c0,8.967,7.753,15.612,7.753,15.612s-2.215-16.613,0-14.952c2.215,1.661,4.815,9.829,10.714,9.345l0,0
		c1.719,2.976,4.03,5.928,7.007,7.822c0,0-1.661,11.076,0,11.076c0.087,0,0.181-0.012,0.277-0.026
		c-0.861,4.986-3.614,20.084-6.369,26.054c-3.323,7.199-4.984,23.813-7.199,33.781c-2.215,9.968-6.092,19.382-7.753,28.797
		c-1.268,7.183-3.179,15.006-4.014,18.313c-4.175-4.594-9.658-6.13-13.153-6.13c-11.629,0-21.874,10.245-23.536,27.412
		c-1.449,14.974,5.815,29.073,19.105,28.52c9.327-0.389,16.195-3.786,20.039-13.238c0.691,0.029,1.822,0.001,2.892-0.359
		c0.879,4.046,3.833,4.034,5.417,3.715c0,0,0,0,0,0c-7.288,10.216-16.813,24.641-19.488,30.372
		c-3.876,8.307-6.092,11.629-10.522,17.167c-4.43,5.538-4.43,8.307-3.876,13.845c0.554,5.538,7.199,17.721,8.86,22.151
		c1.661,4.43,4.984,18.552,4.984,18.552h43.761c0,0-2.228-9.691-4.997-16.89c-2.769-7.199-8.307-17.167-8.307-17.167
		s15.506-15.506,28.243-22.151c12.737-6.645,23.813-16.613,23.813-16.613s1.107,7.753,2.215,15.506
		c1.107,7.753,4.984,23.259,4.984,27.135c0,3.876-0.554,10.522,0.554,15.506c1.107,4.984,6.674,14.675,6.674,14.675h37.693
		c0,0-3.941-12.46-3.941-18.552c0-6.092,1.108-16.613,7.753-32.673c6.645-16.06,4.984-26.581,4.984-33.227
		c0-6.645-0.676-13.672,0.986-17.549c0.637-1.486,2.649-4.304,5.04-7.676c4.393,7.043,11.889,12.184,22.217,12.488
		c4.636,0.136,8.867-0.368,12.615-1.5c0.002,0,0.004,0,0.006,0c15.39,0.716,31.128-7.915,32.09-27.869
		C372.902,354.082,357.637,344.131,349.343,343.565z M291.815,227.818c0,0,2.215,6.092,3.876,12.183
		c1.661,6.092,3.323,8.307,4.43,12.737c1.108,4.43,2.215,13.844,3.323,18.275c1.108,4.43,4.984,8.86,6.092,11.629
		c1.108,2.769,2.215,11.076,7.753,23.259c5.538,12.183,11.629,21.597,13.845,28.797c1.159,3.766,1.405,6.915,1.38,9.072
		c-1.403-0.191-2.794-0.268-4.149-0.212c-4.849,0.202-8.978,1.199-12.464,2.837c-0.539-3.001-1.245-6.008-2.133-8.928
		c-1.823-5.989-7.396-11.364-13.136-15.553C300.868,321.97,301,322,301,322s-6.416-4.47-11.4-7.793
		c-4.955-3.304-15.417-12.473-15.536-12.578c-1.125-1.349-2.088-2.571-2.738-3.482c-2.769-3.876-4.984-14.398-4.984-18.275
		c0-3.876,1.661-17.167,3.323-21.597c0.433-1.155,0.676-2.386,0.841-3.642c1.764-0.506,0.862-5.344,1.374-6.88
		c0.554-1.661,5.538-9.968,5.538-13.291c0-3.2,0-3.934,0-3.984c0.943-0.721,2.961-0.787,4.984-3.215
		c1.78-2.136,3.328-4.496,4.209-5.913l0.815-1.211C288.081,221.415,291.815,227.818,291.815,227.818z M210.964,358.509
		c-1.556,1.4-4.03,3.894-6.894,6.878c-3.056-4.109-8.659-5.623-13.006-5.28c-4.108,0.323-7.374,1.678-10.005,3.767
		c-0.011-5.48-0.518-10.948,2.77-15.332c3.323-4.43,10.522-16.06,14.398-23.813c3.002-6.004,6.003-15.326,7.204-19.227
		c1.244,4.146,2.488,7.877,3.318,9.813c1.661,3.876,4.984,13.291,7.199,16.613c1.512,2.268,3.54,9.695,4.675,14.182v4.22
		C218.962,351.653,215.119,354.77,210.964,358.509z"/>
</g>
</svg>
